<?xml version="1.0" encoding="UTF-8"?>
<svg version="1.1" xmlns="http://www.w3.org/2000/svg" width="273" height="272">
<path d="M0 0 C90.09 0 180.18 0 273 0 C273 89.76 273 179.52 273 272 C182.91 272 92.82 272 0 272 C0 182.24 0 92.48 0 0 Z " fill="#CE2A38" transform="translate(0,0)"/>
<path d="M0 0 C0.33 0 0.66 0 1 0 C0.83757813 0.89976563 0.67515625 1.79953125 0.5078125 2.7265625 C-0.27998235 8.25226139 -0.14491579 13.8052183 -0.125 19.375 C-0.12886719 20.47972656 -0.13273438 21.58445312 -0.13671875 22.72265625 C-0.13478516 24.29466797 -0.13478516 24.29466797 -0.1328125 25.8984375 C-0.13168457 26.85411621 -0.13055664 27.80979492 -0.12939453 28.79443359 C-0.24657116 30.97492225 -0.24657116 30.97492225 1 32 C1.29950107 33.49454 1.56417254 34.99611032 1.8125 36.5 C3.38634856 44.56453788 6.47527475 50.80234729 11.6328125 57.17578125 C13 59 13 59 14.0546875 61.16796875 C14.86357365 63.17752969 14.86357365 63.17752969 17 64 C17 64.66 17 65.32 17 66 C17.59167969 66.26039063 18.18335937 66.52078125 18.79296875 66.7890625 C21.13522408 68.07419374 22.51683846 69.41220051 24.3125 71.375 C27.53358627 74.67115396 30.82280451 77.04669604 35 79 C36.10988281 79.52400391 36.10988281 79.52400391 37.2421875 80.05859375 C52.12677861 86.54979722 71.66018234 87.68319775 87 82 C90.25137664 80.50756482 93.10280499 78.69460259 95.9375 76.5 C97.88438577 75.08408308 99.70594695 74.15007233 101.875 73.125 C106.20782085 71.01933005 110.77903913 68.44192174 113 64 C113.66 64 114.32 64 115 64 C115.0825 63.38125 115.165 62.7625 115.25 62.125 C115.62125 61.073125 115.62125 61.073125 116 60 C116.928125 59.566875 116.928125 59.566875 117.875 59.125 C120.94696491 57.49866564 121.4901946 55.08000302 123 52 C125.375 49.4375 125.375 49.4375 128 47 C128.845625 46.113125 129.69125 45.22625 130.5625 44.3125 C132.73250316 42.25377905 134.38933033 41.30533484 137 40 C137.33 39.01 137.66 38.02 138 37 C140.3880477 35.67788728 142.6993148 34.53418827 145.1875 33.4375 C145.84814453 33.13392578 146.50878906 32.83035156 147.18945312 32.51757812 C156.46620401 28.31419347 165.04219334 26.8022842 175.1875 26.8125 C176.43889771 26.8137085 176.43889771 26.8137085 177.71557617 26.81494141 C186.41513075 26.90068443 194.83299891 27.82394402 203 31 C203 31.99 203 32.98 203 34 C203.54527344 34.14695313 204.09054688 34.29390625 204.65234375 34.4453125 C217.67564711 38.31891042 229.41161661 48.33046369 236.1484375 60.15625 C237.46698446 63.01108562 238.23923494 65.95693976 239 69 C239.37125 69.66 239.7425 70.32 240.125 71 C241.43084415 73.98478663 241.12347438 76.78966601 241 80 C241.66 80 242.32 80 243 80 C244.03017114 106.49917137 239.7668915 123.59208409 222 144 C221.278125 144.8559375 220.55625 145.711875 219.8125 146.59375 C214.42592463 152.82678722 208.54177992 158.00684804 202 163 C201.25621094 163.58265625 200.51242188 164.1653125 199.74609375 164.765625 C172.49401788 185.05064843 137.02715299 193.53115553 103.42578125 189.5390625 C77.40846614 185.69715101 54.03559635 174.96051273 34 158 C33.1646875 157.30003906 32.329375 156.60007813 31.46875 155.87890625 C25.21464037 150.46446875 20.02986852 144.55434772 15 138 C14.32066406 137.13632813 13.64132813 136.27265625 12.94140625 135.3828125 C-8.31180023 107.45949639 -15.20498636 72.38091011 -11.68652344 37.93066406 C-9.91649189 25.10585749 -6.13504647 11.45208675 0 0 Z " fill="#0045A1" transform="translate(15,80)"/>
<path d="M0 0 C90.09 0 180.18 0 273 0 C273 89.76 273 179.52 273 272 C182.91 272 92.82 272 0 272 C0 182.24 0 92.48 0 0 Z M61 26 C60.00097656 26.70382813 59.00195312 27.40765625 57.97265625 28.1328125 C44.05367449 38.35693728 32.35488614 50.48793305 23 65 C22.37867187 65.93714844 21.75734375 66.87429687 21.1171875 67.83984375 C3.6294171 95.79675025 -2.1814926 132.91614004 5.09790039 165.05102539 C5.68477476 167.38360024 6.32641082 169.69103493 7 172 C7.23605957 172.81968262 7.47211914 173.63936523 7.71533203 174.48388672 C13.11113277 192.60556697 21.80021271 208.57697429 34 223 C34.42361816 223.50724609 34.84723633 224.01449219 35.28369141 224.53710938 C56.19563553 249.3577546 87.20581954 265.65773123 119.37890625 269.7578125 C155.3580105 272.16418193 192.52295637 264.48766488 220.42578125 240.296875 C221.70001953 239.15992188 221.70001953 239.15992188 223 238 C223.90105469 237.24203125 224.80210937 236.4840625 225.73046875 235.703125 C246.14597055 218.08071724 259.03327462 193.73676731 266 168 C266.34160156 166.79988281 266.68320312 165.59976563 267.03515625 164.36328125 C271.70712455 144.61063389 270.96280055 120.36775705 265 101 C264.78569336 100.28392578 264.57138672 99.56785156 264.35058594 98.83007812 C257.90306506 77.78882367 247.21542189 59.87239175 232 44 C231.24332031 43.18015625 230.48664063 42.3603125 229.70703125 41.515625 C205.95902663 16.56666093 171.45961779 3.67472616 137.43676758 2.71459961 C110.76867433 2.39329728 82.74614951 10.37906995 61 26 Z " fill="#FDFDFD" transform="translate(0,0)"/>
<path d="M0 0 C0.33 0 0.66 0 1 0 C7.27058288 26.83380283 0.37554233 57.9957153 -12 82 C-13 80 -13 80 -12.46557617 78.07861328 C-12.18174072 77.29212402 -11.89790527 76.50563477 -11.60546875 75.6953125 C-9.62754905 69.43846691 -9.44521532 63.39700986 -9.3125 56.875 C-9.27833984 55.72773438 -9.24417969 54.58046875 -9.20898438 53.3984375 C-9.12733576 50.59905626 -9.05791908 47.79995551 -9 45 C-9.66 45 -10.32 45 -11 45 C-11.33 42.03 -11.66 39.06 -12 36 C-11.34 36 -10.68 36 -10 36 C-8.38161274 41.04517487 -7.68567177 45.54194701 -7.4375 50.875 C-7.62439342 55.2570713 -7.62439342 55.2570713 -6 59 C-5.5359375 57.5459375 -5.5359375 57.5459375 -5.0625 56.0625 C-4 53 -4 53 -3 52 C-2.76572222 49.98405418 -2.58663876 47.961526 -2.4375 45.9375 C-2.35371094 44.83277344 -2.26992188 43.72804687 -2.18359375 42.58984375 C-2.12300781 41.73519531 -2.06242187 40.88054687 -2 40 C-1.34 40 -0.68 40 0 40 C0 26.8 0 13.6 0 0 Z " fill="#B9444F" transform="translate(267,115)"/>
<path d="M0 0 C0 3.92832425 -1.49431415 6.12644337 -4 9 C-5.97137343 10.6421501 -7.99289277 12.13900206 -10.09765625 13.60546875 C-11.9991702 14.89932956 -11.9991702 14.89932956 -13.30078125 16.44921875 C-15.88624744 18.80882813 -18.99326783 20.13189133 -22.125 21.625 C-26.34401609 23.4091776 -26.34401609 23.4091776 -30 26 C-32.33297433 26.04092937 -34.66705225 26.04241723 -37 26 C-37 26.66 -37 27.32 -37 28 C-44.92 28 -52.84 28 -61 28 C-61 27.67 -61 27.34 -61 27 C-59.83984375 26.96261719 -58.6796875 26.92523438 -57.484375 26.88671875 C-44.66626958 26.38488367 -32.56844803 25.63363718 -22.0625 17.5 C-20.11561423 16.08408308 -18.29405305 15.15007233 -16.125 14.125 C-11.79217915 12.01933005 -7.22096087 9.44192174 -5 5 C-4.34 5 -3.68 5 -3 5 C-2.814375 4.0409375 -2.814375 4.0409375 -2.625 3.0625 C-2.41875 2.381875 -2.2125 1.70125 -2 1 C-1.34 0.67 -0.68 0.34 0 0 Z " fill="#68366E" transform="translate(133,139)"/>
<path d="M0 0 C0.66 0.33 1.32 0.66 2 1 C-3.02740835 5.8811081 -8.29753734 10.04395531 -14.1875 13.8125 C-14.76902832 14.1849585 -15.35055664 14.55741699 -15.94970703 14.94116211 C-25.60379376 21 -25.60379376 21 -29 21 C-29 20.01 -29 19.02 -29 18 C-26.03 17.34 -23.06 16.68 -20 16 C-20 15.34 -20 14.68 -20 14 C-18.68 13.34 -17.36 12.68 -16 12 C-16 11.34 -16 10.68 -16 10 C-14.576875 9.38125 -14.576875 9.38125 -13.125 8.75 C-9.92147294 7.34044649 -9.92147294 7.34044649 -8.9375 4.875 C-8.628125 4.25625 -8.31875 3.6375 -8 3 C-5.5625 2.375 -5.5625 2.375 -3 2 C-2.01 1.34 -1.02 0.68 0 0 Z " fill="#134A95" transform="translate(223,235)"/>
<path d="M0 0 C1.25139771 0.0012085 1.25139771 0.0012085 2.52807617 0.00244141 C11.22763075 0.08818443 19.64549891 1.01144402 27.8125 4.1875 C27.8125 4.5175 27.8125 4.8475 27.8125 5.1875 C25.49965544 5.04723717 23.18722409 4.90014442 20.875 4.75 C18.94333984 4.62818359 18.94333984 4.62818359 16.97265625 4.50390625 C13.8125 4.1875 13.8125 4.1875 12.8125 3.1875 C10.52098583 3.09959025 8.22677476 3.08055962 5.93359375 3.08984375 C5.2469313 3.0912587 4.56026886 3.09267365 3.85279846 3.09413147 C1.65182199 3.09974521 -0.54905409 3.11229993 -2.75 3.125 C-4.23893083 3.13001324 -5.72786324 3.13457645 -7.21679688 3.13867188 C-10.87373075 3.14971907 -14.53060558 3.16699287 -18.1875 3.1875 C-13.88063645 -1.11936355 -5.83002115 -0.00587053 0 0 Z " fill="#403779" transform="translate(190.1875,106.8125)"/>
<path d="M0 0 C-3 2 -3 2 -6.4375 2.875 C-10.10384605 4.03279349 -11.57983885 5.09580662 -14 8 C-14.99 7.67 -15.98 7.34 -17 7 C-19.73304994 7.49736753 -19.73304994 7.49736753 -22.625 8.375 C-24.09839844 8.78878906 -24.09839844 8.78878906 -25.6015625 9.2109375 C-27.92633444 9.77609749 -27.92633444 9.77609749 -29 11 C-30.66617115 11.04063832 -32.33388095 11.042721 -34 11 C-31.90389453 8.90389453 -30.66408337 8.34898086 -27.9296875 7.34375 C-27.115 7.04339844 -26.3003125 6.74304688 -25.4609375 6.43359375 C-24.60757813 6.12550781 -23.75421875 5.81742188 -22.875 5.5 C-22.04484375 5.19191406 -21.2146875 4.88382813 -20.359375 4.56640625 C-6.70771301 -0.41923206 -6.70771301 -0.41923206 0 0 Z " fill="#C03E48" transform="translate(112,6)"/>
<path d="M0 0 C-3.38781489 1.18573521 -6.76424737 2.21650529 -10.25 3.0625 C-13.78532923 3.80227693 -13.78532923 3.80227693 -16 5 C-18.33984536 5.02851438 -20.68066484 4.98750131 -23.01953125 4.9140625 C-23.71511642 4.89282318 -24.4107016 4.87158386 -25.12736511 4.84970093 C-26.60102498 4.80341335 -28.07460383 4.75448296 -29.5480957 4.703125 C-31.7929661 4.62567395 -34.03797312 4.55828897 -36.28320312 4.4921875 C-37.71616551 4.44591798 -39.1491091 4.39906177 -40.58203125 4.3515625 C-41.88374268 4.30854004 -43.1854541 4.26551758 -44.52661133 4.22119141 C-47.46051279 4.03435548 -50.14461925 3.6702836 -53 3 C-53 2.67 -53 2.34 -53 2 C-52.175 2.01047363 -51.35 2.02094727 -50.5 2.03173828 C-36.37468693 2.18741626 -12.32317017 -3.82443212 0 0 Z " fill="#DFF1FA" transform="translate(169,267)"/>
<path d="M0 0 C0.66 0 1.32 0 2 0 C4.26182493 6.40087297 4.39696464 12.56592479 4.5625 19.3125 C4.622262 21.47537582 4.68586542 23.63815004 4.75390625 25.80078125 C4.78979858 27.22644409 4.78979858 27.22644409 4.82641602 28.6809082 C4.8544787 31.02496153 4.8544787 31.02496153 6 33 C5.07421875 35.78515625 5.07421875 35.78515625 3.6875 39.0625 C3.23761719 40.14660156 2.78773438 41.23070312 2.32421875 42.34765625 C1 45 1 45 -1 46 C-0.79141357 45.2874707 -0.58282715 44.57494141 -0.36791992 43.84082031 C1.75904624 36.07320788 2.52154216 28.78235932 2.6875 20.75 C2.72166016 19.61175781 2.75582031 18.47351563 2.79101562 17.30078125 C2.87239293 14.53395298 2.94189107 11.7673977 3 9 C2.34 9 1.68 9 1 9 C0.67 6.03 0.34 3.06 0 0 Z " fill="#9D4260" transform="translate(255,151)"/>
<path d="M0 0 C1.70840281 1.63412443 2.93453047 2.86906094 4 5 C4.04022391 7.3329866 4.04320247 9.66706666 4 12 C4.66 12 5.32 12 6 12 C6.05796132 16.10410755 6.09358313 20.20811016 6.125 24.3125 C6.14175781 25.47974609 6.15851563 26.64699219 6.17578125 27.84960938 C6.18222656 28.96787109 6.18867188 30.08613281 6.1953125 31.23828125 C6.20578613 32.26993408 6.21625977 33.30158691 6.22705078 34.36450195 C6 37 6 37 4 40 C4.00523682 39.40461426 4.01047363 38.80922852 4.01586914 38.19580078 C4.03661999 35.50554453 4.04965407 32.81530511 4.0625 30.125 C4.07087891 29.18785156 4.07925781 28.25070313 4.08789062 27.28515625 C4.09111328 26.38925781 4.09433594 25.49335938 4.09765625 24.5703125 C4.10289307 23.74289551 4.10812988 22.91547852 4.11352539 22.06298828 C4.13352138 19.93588243 4.13352138 19.93588243 3 18 C2.92966231 16.12620395 2.9156978 14.24998898 2.9375 12.375 C2.94652344 11.37210938 2.95554688 10.36921875 2.96484375 9.3359375 C2.98224609 8.17964844 2.98224609 8.17964844 3 7 C2.34 7 1.68 7 1 7 C0.67 4.69 0.34 2.38 0 0 Z " fill="#3B387C" transform="translate(252,148)"/>
<path d="M0 0 C0.33 0.66 0.66 1.32 1 2 C0.26630239 3.90094381 -0.47072559 5.80072122 -1.23046875 7.69140625 C-2.46204667 11.38614002 -2.74030909 15.131501 -3 19 C-3.66 19 -4.32 19 -5 19 C-4.67 26.59 -4.34 34.18 -4 42 C-4.66 41.67 -5.32 41.34 -6 41 C-6.71915557 10.59631536 -6.71915557 10.59631536 0 0 Z " fill="#8D3F63" transform="translate(20,70)"/>
<path d="M0 0 C0.5775 0.20625 1.155 0.4125 1.75 0.625 C-3.22504047 3.87400602 -6.13225104 5.12440808 -12.25 4.625 C-12.25 5.285 -12.25 5.945 -12.25 6.625 C-20.17 6.625 -28.09 6.625 -36.25 6.625 C-36.25 6.295 -36.25 5.965 -36.25 5.625 C-35.08984375 5.58761719 -33.9296875 5.55023438 -32.734375 5.51171875 C-17.96634055 5.07836309 -17.96634055 5.07836309 -4.0703125 0.50390625 C-2.25 -0.375 -2.25 -0.375 0 0 Z " fill="#3F377C" transform="translate(108.25,160.375)"/>
<path d="M0 0 C0.33 0 0.66 0 1 0 C0.75636719 1.34964844 0.75636719 1.34964844 0.5078125 2.7265625 C-0.27998235 8.25226139 -0.14491579 13.8052183 -0.125 19.375 C-0.12886719 20.47972656 -0.13273438 21.58445312 -0.13671875 22.72265625 C-0.13542969 23.77066406 -0.13414063 24.81867188 -0.1328125 25.8984375 C-0.13168457 26.85411621 -0.13055664 27.80979492 -0.12939453 28.79443359 C-0.24657116 30.97492225 -0.24657116 30.97492225 1 32 C1.39569108 34.01311449 1.74252191 36.03597208 2.0625 38.0625 C2.23910156 39.16722656 2.41570313 40.27195313 2.59765625 41.41015625 C2.73042969 42.26480469 2.86320312 43.11945313 3 44 C1 43 1 43 0.15942383 41.00366211 C-2.10442667 33.1195661 -2.41994269 25.7324418 -2.3125 17.5625 C-2.31572266 16.31017578 -2.31894531 15.05785156 -2.32226562 13.76757812 C-2.26299471 3.72923959 -2.26299471 3.72923959 0 0 Z " fill="#30397D" transform="translate(15,80)"/>
<path d="M0 0 C2.70058773 2.52054855 4.40337783 4.69271121 6 8 C6.66 8.33 7.32 8.66 8 9 C8 9.66 8 10.32 8 11 C8.598125 11.2475 9.19625 11.495 9.8125 11.75 C12.28647521 13.16370012 13.43370255 14.65055383 15 17 C13.35 16.67 11.7 16.34 10 16 C9.67 15.01 9.34 14.02 9 13 C8.34 13 7.68 13 7 13 C7 12.01 7 11.02 7 10 C6.01 10 5.02 10 4 10 C1.09677182 6.35022743 0 4.74147821 0 0 Z " fill="#373A7D" transform="translate(24,135)"/>
<path d="M0 0 C0.33 0 0.66 0 1 0 C1.4375 2.125 1.4375 2.125 1 5 C-1.12279001 7.27879558 -3.53965779 9.10186269 -6 11 C-6.66 11.66 -7.32 12.32 -8 13 C-10.625 13.625 -10.625 13.625 -13 14 C-12.34 13.360625 -11.68 12.72125 -11 12.0625 C-7.71471808 8.79609901 -4.70706564 5.29028428 -1.671875 1.79296875 C-1.12015625 1.20128906 -0.5684375 0.60960937 0 0 Z " fill="#E2F1F9" transform="translate(237,223)"/>
<path d="M0 0 C4.1310381 1.47373448 7.54361823 3.50673664 11.1875 5.9375 C12.23292969 6.62714844 13.27835938 7.31679688 14.35546875 8.02734375 C17 10 17 10 19 13 C16.03 12.505 16.03 12.505 13 12 C12.67 11.01 12.34 10.02 12 9 C10.34795544 8.29788106 8.68076231 7.63028587 7 7 C6.67 6.34 6.34 5.68 6 5 C5.01 4.67 4.02 4.34 3 4 C3 3.34 3 2.68 3 2 C2.01 2 1.02 2 0 2 C0 1.34 0 0.68 0 0 Z " fill="#BF3A4A" transform="translate(201,21)"/>
<path d="M0 0 C-1.72721684 1.27348212 -3.45686238 2.54367057 -5.1875 3.8125 C-6.15042969 4.52019531 -7.11335938 5.22789063 -8.10546875 5.95703125 C-10.6779333 7.77268437 -13.27720484 9.42207301 -16 11 C-16 10.01 -16 9.02 -16 8 C-13.8828125 5.9921875 -13.8828125 5.9921875 -11.125 3.875 C-10.22007813 3.17117187 -9.31515625 2.46734375 -8.3828125 1.7421875 C-4.99737338 -0.73306799 -3.97112106 -1.19133632 0 0 Z " fill="#FCE7E6" transform="translate(64,25)"/>
<path d="M0 0 C0 0.33 0 0.66 0 1 C-0.66008057 1.05534912 -1.32016113 1.11069824 -2.00024414 1.16772461 C-5.02117623 1.42222761 -8.04183569 1.67983898 -11.0625 1.9375 C-12.10083984 2.02451172 -13.13917969 2.11152344 -14.20898438 2.20117188 C-19.50327607 2.65496831 -24.75044051 3.17347361 -30 4 C-30.33 3.34 -30.66 2.68 -31 2 C-20.58244479 -0.06142435 -10.57691426 -0.21367504 0 0 Z " fill="#C9646E" transform="translate(144,3)"/>
<path d="M0 0 C6.875 1.875 6.875 1.875 8 3 C10.01311449 3.39569108 12.03597208 3.74252191 14.0625 4.0625 C15.71958984 4.32740234 15.71958984 4.32740234 17.41015625 4.59765625 C18.26480469 4.73042969 19.11945313 4.86320313 20 5 C20 5.33 20 5.66 20 6 C14.39 6 8.78 6 3 6 C3 5.34 3 4.68 3 4 C2.01 3.34 1.02 2.68 0 2 C0 1.34 0 0.68 0 0 Z " fill="#323C7F" transform="translate(52,160)"/>
<path d="M0 0 C0.66 0.33 1.32 0.66 2 1 C-0.92607798 5.2765755 -3.07200123 6.57635591 -8 8 C-8.33 8.66 -8.66 9.32 -9 10 C-11.32156597 10.40729228 -13.6568787 10.74438677 -16 11 C-12.88565472 8.58841672 -9.64808253 6.46808917 -6.3125 4.375 C-2.98122189 2.41579346 -2.98122189 2.41579346 0 0 Z " fill="#DEF1F9" transform="translate(214,244)"/>
<path d="M0 0 C1.97909398 -0.02686553 3.95828971 -0.04633375 5.9375 -0.0625 C7.03964844 -0.07410156 8.14179687 -0.08570313 9.27734375 -0.09765625 C12 0 12 0 13 1 C14.51469448 1.23192865 16.03754562 1.41215238 17.5625 1.5625 C18.38878906 1.64628906 19.21507812 1.73007812 20.06640625 1.81640625 C20.70449219 1.87699219 21.34257812 1.93757813 22 2 C22 2.33 22 2.66 22 3 C7.25213432 3.20233352 7.25213432 3.20233352 1 2 C0.67 1.34 0.34 0.68 0 0 Z " fill="#255A9B" transform="translate(114,267)"/>
<path d="M0 0 C1.10709193 3.3212758 0.8767476 4.69559988 0.1875 8.0625 C0.01605469 8.94035156 -0.15539062 9.81820312 -0.33203125 10.72265625 C-1 13 -1 13 -3 15 C-4 14 -4 14 -4.09765625 11.93359375 C-4.08605469 11.10988281 -4.07445312 10.28617188 -4.0625 9.4375 C-4.05347656 8.61121094 -4.04445313 7.78492188 -4.03515625 6.93359375 C-4.02355469 6.29550781 -4.01195312 5.65742188 -4 5 C-3.01 5.495 -3.01 5.495 -2 6 C-1.34 4.02 -0.68 2.04 0 0 Z " fill="#C1313C" transform="translate(263,168)"/>
<path d="M0 0 C1.875 0.25 1.875 0.25 4 1 C4.69429379 2.3191582 5.35615413 3.65549834 6 5 C7.01260441 6.43758346 8.05512648 7.8545128 9.125 9.25 C9.93324219 10.30960938 9.93324219 10.30960938 10.7578125 11.390625 C11.16773438 11.92171875 11.57765625 12.4528125 12 13 C11.67 13.66 11.34 14.32 11 15 C2.3690205 5.77448747 2.3690205 5.77448747 0 0 Z " fill="#1A4C93" transform="translate(25,210)"/>
<path d="M0 0 C0.66 0 1.32 0 2 0 C0.94513949 6.12096691 -0.65217026 10.75506674 -4 16 C-5.24546405 13.50907189 -4.7767578 12.58919267 -4 10 C-3.34 10 -2.68 10 -2 10 C-2 8.35 -2 6.7 -2 5 C-1.34 5 -0.68 5 0 5 C0 3.35 0 1.7 0 0 Z " fill="#234285" transform="translate(253,192)"/>
<path d="M0 0 C0.66 0.33 1.32 0.66 2 1 C-0.52598332 3.7064107 -2.69095547 5.39884942 -6 7 C-7.70921589 8.5412312 -7.70921589 8.5412312 -9 10 C-9.66 9.67 -10.32 9.34 -11 9 C-9.37660195 7.29115995 -7.70680947 5.62553283 -6 4 C-5.34 4 -4.68 4 -4 4 C-3.67 3.01 -3.34 2.02 -3 1 C-2.01 0.67 -1.02 0.34 0 0 Z " fill="#573773" transform="translate(156,116)"/>
<path d="M0 0 C2.86123584 2.86123584 4.31619211 5.15280732 6.1875 8.6875 C6.71730469 9.68136719 7.24710938 10.67523438 7.79296875 11.69921875 C8.19128906 12.45847656 8.58960938 13.21773437 9 14 C8.01 14 7.02 14 6 14 C5.67 12.35 5.34 10.7 5 9 C4.34 9 3.68 9 3 9 C2.01 6.03 1.02 3.06 0 0 Z " fill="#BF4651" transform="translate(246,62)"/>
<path d="M0 0 C-8.07744875 5.74031891 -8.07744875 5.74031891 -14 5 C-12.67753846 2.35507692 -11.35464102 2.02166213 -8.6875 0.8125 C-7.90761719 0.44769531 -7.12773437 0.08289063 -6.32421875 -0.29296875 C-3.7433438 -1.07807525 -2.50336038 -0.89937661 0 0 Z " fill="#443978" transform="translate(172,111)"/>
<path d="M0 0 C0.66 0 1.32 0 2 0 C0.13236819 5.72210596 -1.85289032 11.37661751 -4 17 C-5.47551172 13.14312442 -4.46711142 10.61206371 -3.125 6.8125 C-2.75632812 5.74644531 -2.38765625 4.68039063 -2.0078125 3.58203125 C-1 1 -1 1 0 0 Z " fill="#DCF1FA" transform="translate(13,80)"/>
<path d="M0 0 C1.04692131 3.40249424 1.3774792 6.4516955 1 10 C-1 11.875 -1 11.875 -3 13 C-2.88490339 11.58249437 -2.75746342 10.16598831 -2.625 8.75 C-2.55539063 7.96109375 -2.48578125 7.1721875 -2.4140625 6.359375 C-1.98492887 3.914123 -1.21399362 2.15163097 0 0 Z " fill="#BA3146" transform="translate(20,72)"/>
<path d="M0 0 C1 2 1 2 0.8125 4 C-0.26776708 6.65911897 -1.43287682 6.82645797 -4 8 C-5.37086915 9.29470975 -6.71340837 10.62150897 -8 12 C-6.71999898 6.99635967 -4.82671924 4.43423522 -1 1 C-0.67 0.67 -0.34 0.34 0 0 Z " fill="#2E3982" transform="translate(144,126)"/>
<path d="M0 0 C3.9252025 3.70090521 6.94580156 7.54959656 10 12 C9.01 12.495 9.01 12.495 8 13 C7.67386719 12.52949219 7.34773437 12.05898438 7.01171875 11.57421875 C6.57472656 10.95160156 6.13773438 10.32898437 5.6875 9.6875 C5.25824219 9.07261719 4.82898438 8.45773438 4.38671875 7.82421875 C3.05117373 5.95785998 3.05117373 5.95785998 1.33203125 4.45703125 C0 3 0 3 0 0 Z " fill="#BE4552" transform="translate(236,49)"/>
<path d="M0 0 C0.33 0.66 0.66 1.32 1 2 C0.22265625 3.7265625 0.22265625 3.7265625 -0.9375 5.625 C-1.618125 6.73875 -2.29875 7.8525 -3 9 C-4.32 8.67 -5.64 8.34 -7 8 C-4.69 5.36 -2.38 2.72 0 0 Z " fill="#C1424E" transform="translate(36,48)"/>
<path d="M0 0 C0.66 0.33 1.32 0.66 2 1 C0.625 3 0.625 3 -1 5 C-1.66 5 -2.32 5 -3 5 C-3.1546875 5.8971875 -3.1546875 5.8971875 -3.3125 6.8125 C-4.08876455 9.28243264 -5.07088921 10.32251235 -7 12 C-7 10.35 -7 8.7 -7 7 C-6.01 7 -5.02 7 -4 7 C-4 6.01 -4 5.02 -4 4 C-2 1.8125 -2 1.8125 0 0 Z " fill="#9E3555" transform="translate(141,127)"/>
<path d="M0 0 C2.31 0 4.62 0 7 0 C7 0.66 7 1.32 7 2 C7.66 2 8.32 2 9 2 C9 3.65 9 5.3 9 7 C7.4972763 6.02501855 5.99788037 5.04490611 4.5 4.0625 C3.6646875 3.51722656 2.829375 2.97195312 1.96875 2.41015625 C1.3190625 1.94480469 0.669375 1.47945313 0 1 C0 0.67 0 0.34 0 0 Z " fill="#B82F4E" transform="translate(229,118)"/>
<path d="M0 0 C5.875 4.625 5.875 4.625 7 8 C3.4213696 6.34832443 0.25179812 4.21713508 -3 2 C-2.01 1.34 -1.02 0.68 0 0 Z " fill="#FBE4E3" transform="translate(215,26)"/>
<path d="M0 0 C3.59391114 1.33488128 6.75490696 2.96022723 10 5 C9.67 6.32 9.34 7.64 9 9 C7.49704815 7.69088122 5.99770689 6.37761608 4.5 5.0625 C3.6646875 4.33160156 2.829375 3.60070312 1.96875 2.84765625 C1.3190625 2.23792969 0.669375 1.62820312 0 1 C0 0.67 0 0.34 0 0 Z " fill="#225295" transform="translate(42,231)"/>
<path d="M0 0 C0.66 0 1.32 0 2 0 C3.7479503 5.24385089 4.19392201 9.47322267 4 15 C3.67 15 3.34 15 3 15 C3 13.02 3 11.04 3 9 C2.34 9 1.68 9 1 9 C0.67 6.03 0.34 3.06 0 0 Z " fill="#AE334E" transform="translate(255,151)"/>
<path d="M0 0 C7.66742597 5.96583144 7.66742597 5.96583144 9 11 C5.20596616 9.73532205 4.93315707 8.38302487 3 5 C2.443125 4.443125 1.88625 3.88625 1.3125 3.3125 C0.879375 2.879375 0.44625 2.44625 0 2 C0 1.34 0 0.68 0 0 Z " fill="#5E386C" transform="translate(239,127)"/>
<path d="M0 0 C2.25693432 2.25693432 2.87292007 4.04141517 4 7 C4.65213539 8.34050052 5.31379969 9.67661368 6 11 C5.01 11 4.02 11 3 11 C3 10.01 3 9.02 3 8 C2.34 8 1.68 8 1 8 C0.67 5.36 0.34 2.72 0 0 Z " fill="#31397F" transform="translate(18,124)"/>
<path d="M0 0 C0.33 0.99 0.66 1.98 1 3 C-0.4375 5.1875 -0.4375 5.1875 -2 7 C-3.32 6.67 -4.64 6.34 -6 6 C-4.02 4.02 -2.04 2.04 0 0 Z " fill="#BC3342" transform="translate(43,41)"/>
<path d="M0 0 C1.65 0.33 3.3 0.66 5 1 C2.57869669 3.42130331 1.19888623 3.52840504 -2.125 4.125 C-3.03507813 4.29257812 -3.94515625 4.46015625 -4.8828125 4.6328125 C-5.58148438 4.75398438 -6.28015625 4.87515625 -7 5 C-6.67 4.34 -6.34 3.68 -6 3 C-4.35 3 -2.7 3 -1 3 C-0.67 2.01 -0.34 1.02 0 0 Z " fill="#144B91" transform="translate(177,260)"/>
<path d="M0 0 C5.75 1.75 5.75 1.75 8 4 C7.34 4 6.68 4 6 4 C5.67 4.66 5.34 5.32 5 6 C4.01 5.34 3.02 4.68 2 4 C2 3.34 2 2.68 2 2 C1.34 2 0.68 2 0 2 C0 1.34 0 0.68 0 0 Z " fill="#DEEDF8" transform="translate(74,255)"/>
<path d="M0 0 C0.66 0.33 1.32 0.66 2 1 C1.195625 1.45375 0.39125 1.9075 -0.4375 2.375 C-3.08856572 3.74725665 -3.08856572 3.74725665 -4 6 C-5.32 5.67 -6.64 5.34 -8 5 C-5.31158141 2.74754119 -3.35358125 1.11786042 0 0 Z " fill="#993659" transform="translate(116,154)"/>
<path d="M0 0 C-1.49097658 3.7952131 -3.75700849 5.61042731 -7 8 C-7 5 -7 5 -4.625 2.3125 C-2 0 -2 0 0 0 Z " fill="#18488E" transform="translate(240,219)"/>
<path d="M0 0 C0.66 0 1.32 0 2 0 C5.22265625 5.17578125 5.22265625 5.17578125 6 7 C5.67 7.99 5.34 8.98 5 10 C3.35 6.7 1.7 3.4 0 0 Z " fill="#1D4F93" transform="translate(19,200)"/>
<path d="M0 0 C2 1.625 2 1.625 4 4 C4.25 7.25 4.25 7.25 4 10 C0 4 0 4 0 0 Z " fill="#593673" transform="translate(248,138)"/>
<path d="M0 0 C1.32 0.33 2.64 0.66 4 1 C2.35 2.65 0.7 4.3 -1 6 C-1.66 5.34 -2.32 4.68 -3 4 C-2.01 4 -1.02 4 0 4 C0 2.68 0 1.36 0 0 Z " fill="#2155A1" transform="translate(228,228)"/>
<path d="M0 0 C0.33 0.66 0.66 1.32 1 2 C0.06553465 4.03144641 -0.93224776 6.03533587 -2 8 C-3.32 7.67 -4.64 7.34 -6 7 C-5.071875 6.1028125 -5.071875 6.1028125 -4.125 5.1875 C-1.86323046 2.99188856 -1.86323046 2.99188856 0 0 Z " fill="#0B428D" transform="translate(133,141)"/>
<path d="M0 0 C0 0.99 0 1.98 0 3 C-2.31 3.33 -4.62 3.66 -7 4 C-3.17391304 0 -3.17391304 0 0 0 Z " fill="#C0414D" transform="translate(78,17)"/>
</svg>
