<?xml version="1.0" standalone="no"?>
<!DOCTYPE svg PUBLIC "-//W3C//DTD SVG 20010904//EN"
 "http://www.w3.org/TR/2001/REC-SVG-20010904/DTD/svg10.dtd">
<svg version="1.0" xmlns="http://www.w3.org/2000/svg"
 width="219.000000pt" height="218.000000pt" viewBox="0 0 219.000000 218.000000"
 preserveAspectRatio="xMidYMid meet">

<g transform="translate(0.000000,218.000000) scale(0.100000,-0.100000)"
fill="#000000" stroke="none">
<path d="M922 2145 c-314 -57 -583 -243 -745 -516 -147 -250 -181 -589 -85
-874 51 -154 133 -285 255 -408 138 -140 298 -230 502 -284 83 -22 117 -26
251 -26 134 0 168 4 251 26 387 102 658 365 775 752 26 84 28 103 28 275 1
206 -11 270 -77 427 -115 273 -364 500 -647 591 -153 50 -356 64 -508 37z"/>
</g>
</svg>
