<?xml version="1.0" standalone="no"?>
<!DOCTYPE svg PUBLIC "-//W3C//DTD SVG 20010904//EN"
 "http://www.w3.org/TR/2001/REC-SVG-20010904/DTD/svg10.dtd">
<svg version="1.0" xmlns="http://www.w3.org/2000/svg"
 width="254.000000pt" height="63.000000pt" viewBox="0 0 254.000000 63.000000"
 preserveAspectRatio="xMidYMid meet">

<g transform="translate(0.000000,63.000000) scale(0.100000,-0.100000)"
fill="#000000" stroke="none">
<path d="M490 523 c26 -23 37 -39 30 -43 -8 -5 -7 -9 4 -13 29 -11 17 18 -22
56 -21 20 -41 37 -45 37 -4 0 11 -16 33 -37z"/>
<path d="M348 523 c7 -3 16 -2 19 1 4 3 -2 6 -13 5 -11 0 -14 -3 -6 -6z"/>
<path d="M590 364 l0 -165 28 3 27 3 5 104 5 104 44 -97 c50 -108 61 -121 93
-112 17 4 36 33 73 108 l50 103 3 -107 c3 -107 3 -108 27 -108 l25 0 0 165 0
165 -32 0 c-32 0 -34 -3 -94 -128 l-61 -127 -62 128 c-61 127 -61 127 -96 127
l-35 0 0 -166z"/>
<path d="M1042 368 l3 -163 28 -3 c27 -3 27 -2 27 51 l0 55 118 4 c64 3 125 9
134 13 39 16 46 147 10 188 -13 15 -35 17 -169 17 l-153 0 2 -162z m273 52 l0
-45 -107 -3 -108 -3 0 51 0 51 108 -3 107 -3 0 -45z"/>
<path d="M1442 368 l3 -163 28 -3 27 -3 0 165 0 166 -30 0 -30 0 2 -162z"/>
<path d="M1570 365 l0 -165 155 0 155 0 0 35 0 35 -125 0 -125 0 0 130 0 130
-30 0 -30 0 0 -165z"/>
<path d="M308 513 c7 -3 16 -2 19 1 4 3 -2 6 -13 5 -11 0 -14 -3 -6 -6z"/>
<path d="M187 487 c-22 -7 -36 -15 -33 -18 3 -3 0 -23 -7 -43 l-13 -37 -28 27
-28 28 34 13 33 13 -35 -6 c-42 -7 -56 -23 -65 -76 -7 -39 -5 -42 46 -95 135
-138 242 -244 244 -241 1 2 14 49 28 106 l25 103 -36 33 c-36 33 -36 34 -24
75 7 22 15 41 19 41 3 0 17 -12 30 -26 20 -22 23 -33 19 -68 l-6 -41 13 40
c11 34 17 40 51 47 22 5 41 6 43 4 4 -4 -51 -219 -68 -263 -5 -13 -5 -23 -1
-23 6 0 85 276 99 345 3 16 2 16 -6 -2 -13 -29 -22 -29 -51 2 l-23 25 24 9
c41 16 8 11 -81 -13 -46 -12 -79 -25 -71 -27 11 -4 11 -12 1 -46 -11 -35 -18
-42 -52 -52 -22 -7 -42 -10 -45 -8 -9 10 21 86 36 90 11 3 10 5 -5 6 -19 1
-83 57 -73 64 2 2 20 8 39 14 19 6 28 11 20 11 -8 0 -32 -5 -53 -11z m-9 -160
l102 -102 -12 -38 c-6 -20 -14 -37 -17 -37 -4 0 -51 44 -105 99 l-98 99 7 41
c4 22 10 41 14 41 3 0 52 -46 109 -103z m167 -37 c16 -16 27 -32 24 -34 -2 -2
-22 -7 -44 -10 -35 -6 -44 -3 -72 22 l-32 30 32 10 c51 16 61 14 92 -18z m-8
-185 l-10 -35 -29 27 c-26 25 -27 28 -11 35 10 3 28 7 40 7 20 1 20 -1 10 -34z"/>
<path d="M1028 153 c7 -3 16 -2 19 1 4 3 -2 6 -13 5 -11 0 -14 -3 -6 -6z"/>
<path d="M1762 120 c0 -19 2 -27 5 -17 2 9 2 25 0 35 -3 9 -5 1 -5 -18z"/>
<path d="M1792 115 c0 -16 2 -22 5 -12 2 9 2 23 0 30 -3 6 -5 -1 -5 -18z"/>
<path d="M642 110 c0 -14 2 -19 5 -12 2 6 2 18 0 25 -3 6 -5 1 -5 -13z"/>
<path d="M702 110 c0 -14 2 -19 5 -12 2 6 2 18 0 25 -3 6 -5 1 -5 -13z"/>
<path d="M1171 114 c0 -11 3 -14 6 -6 3 7 2 16 -1 19 -3 4 -6 -2 -5 -13z"/>
<path d="M1612 110 c0 -14 2 -19 5 -12 2 6 2 18 0 25 -3 6 -5 1 -5 -13z"/>
<path d="M1671 114 c0 -11 3 -14 6 -6 3 7 2 16 -1 19 -3 4 -6 -2 -5 -13z"/>
<path d="M2012 110 c0 -14 2 -19 5 -12 2 6 2 18 0 25 -3 6 -5 1 -5 -13z"/>
</g>
</svg>
